<svg width="24" height="24" viewBox="0 0 24 24" fill="none" xmlns="http://www.w3.org/2000/svg">
<path fill-rule="evenodd" clip-rule="evenodd" d="M10.5429 3.37695C11.4489 2.87372 12.551 2.87368 13.4569 3.37695L21.4852 7.83788C21.9679 8.10603 22.1419 8.71453 21.8739 9.19726C21.6057 9.67998 20.9973 9.85401 20.5145 9.58593L19.9999 9.2998V18C19.9999 19.6568 18.6567 21 16.9999 21H6.9999C5.34304 21 3.9999 19.6568 3.9999 18V9.2998L3.48525 9.58593C3.00249 9.85401 2.39406 9.67999 2.12587 9.19726C1.85787 8.71452 2.03185 8.10605 2.51455 7.83788L10.5429 3.37695ZM12.4852 5.12597C12.1833 4.95828 11.8165 4.95833 11.5145 5.12597L5.9999 8.18847V18C5.9999 18.5523 6.44761 19 6.9999 19H16.9999C17.5522 19 17.9999 18.5523 17.9999 18V8.50878C17.9999 8.40582 18.0149 8.30635 18.0438 8.21288L12.4852 5.12597Z" fill="white"/>
</svg>
