<svg width="104" height="104" viewBox="0 0 104 104" fill="none" xmlns="http://www.w3.org/2000/svg">
<rect width="104" height="104" rx="50" fill="white"/>
<path d="M52.3341 38.3319V52.3319L55.9741 54.1519M55.1971 75.4903C50.4625 76.0758 45.6622 75.196 41.443 72.9693C37.2238 70.7427 33.7885 67.2763 31.6 63.0372C29.4115 58.798 28.575 53.99 29.2032 49.2608C29.8314 44.5316 31.8941 40.1087 35.1134 36.5879C38.3327 33.0672 42.5538 30.6178 47.208 29.5699C51.8622 28.522 56.7258 28.9259 61.1434 30.7271C65.5609 32.5284 69.3202 35.6405 71.9147 39.6441C74.5091 43.6476 75.814 48.3503 75.6535 53.1183M57.0008 66.3319L66.3341 56.9986M66.3341 56.9986L75.6675 66.3319M66.3341 56.9986V75.6653" stroke="#1D7747" stroke-width="4" stroke-linecap="round" stroke-linejoin="round"/>
</svg>
