<svg width="24" height="24" viewBox="0 0 24 24" fill="none" xmlns="http://www.w3.org/2000/svg">
<path d="M12 4.70874C14.5615 4.70874 16.9684 5.41926 18.79 6.67163C20.6028 7.91794 22 9.8418 22 12.2087C22 14.5757 20.6028 16.4995 18.79 17.7458C16.9684 18.9982 14.5615 19.7087 12 19.7087C10.7398 19.7087 9.24756 19.3281 8.21973 19.0222C7.80928 18.9001 7.43685 18.776 7.13086 18.6716L4.89355 19.7898C4.1701 20.1509 3.30018 20.0404 2.68945 19.5105C2.07884 18.9805 1.84703 18.135 2.10254 17.3679L2.83887 15.1589C2.78426 15.0435 2.72524 14.9195 2.66797 14.7888C2.4228 14.2293 2 13.1828 2 12.2087C2 9.84183 3.39723 7.91794 5.20996 6.67163C7.03161 5.41924 9.43849 4.70876 12 4.70874ZM12 6.70874C7.58176 6.70877 4 9.17119 4 12.2087C4 13.221 4.98723 14.9771 5 14.9998L4 17.9998L7 16.5027C7.01753 16.5095 9.73764 17.5629 11.6318 17.6951L12 17.7087C16.4183 17.7087 20 15.2463 20 12.2087C20 9.2662 16.6389 6.86303 12.4121 6.71558L12 6.70874ZM8.00977 11.2498C8.4239 11.2498 8.75963 11.5857 8.75977 11.9998C8.75977 12.414 8.42398 12.7498 8.00977 12.7498H8C7.58583 12.7497 7.25 12.4139 7.25 11.9998C7.25013 11.5857 7.58591 11.2498 8 11.2498H8.00977ZM12.0098 11.2498C12.4239 11.2498 12.7596 11.5857 12.7598 11.9998C12.7598 12.414 12.424 12.7498 12.0098 12.7498H12C11.5858 12.7497 11.25 12.4139 11.25 11.9998C11.2501 11.5857 11.5859 11.2498 12 11.2498H12.0098ZM16.0098 11.2498C16.4239 11.2498 16.7596 11.5857 16.7598 11.9998C16.7598 12.414 16.424 12.7498 16.0098 12.7498H16C15.5858 12.7497 15.25 12.4139 15.25 11.9998C15.2501 11.5857 15.5859 11.2498 16 11.2498H16.0098Z" fill="white"/>
</svg>
