<svg width="13" height="13" viewBox="0 0 13 13" fill="none" xmlns="http://www.w3.org/2000/svg">
<path d="M12.458 0C12.6015 0 12.7393 0.0568889 12.8408 0.158203C12.9424 0.259781 13 0.398362 13 0.541992C12.9999 0.685464 12.9423 0.823331 12.8408 0.924805L7.26562 6.5L12.8408 12.0752C12.9423 12.1767 12.9999 12.3145 13 12.458C13 12.6016 12.9424 12.7392 12.8408 12.8408C12.7392 12.9424 12.6016 13 12.458 13C12.3145 12.9999 12.1767 12.9423 12.0752 12.8408L6.5 7.26562L0.924805 12.8408C0.823331 12.9423 0.685464 12.9999 0.541992 13C0.398362 13 0.259781 12.9424 0.158203 12.8408C0.0568889 12.7393 0 12.6015 0 12.458C5.52422e-05 12.3145 0.0568075 12.1767 0.158203 12.0752L5.73438 6.5L0.158203 0.924805C0.0567897 0.823336 0.000116689 0.685441 0 0.541992C0 0.398362 0.0566563 0.259781 0.158203 0.158203C0.259781 0.0566563 0.398362 0 0.541992 0C0.685441 0.000116689 0.823336 0.0567897 0.924805 0.158203L6.5 5.73438L12.0752 0.158203C12.1767 0.0568075 12.3145 5.52422e-05 12.458 0Z" fill="white"/>
<path d="M12.458 0C12.6015 0 12.7393 0.0568889 12.8408 0.158203C12.9424 0.259781 13 0.398362 13 0.541992C12.9999 0.685464 12.9423 0.823331 12.8408 0.924805L7.26562 6.5L12.8408 12.0752C12.9423 12.1767 12.9999 12.3145 13 12.458C13 12.6016 12.9424 12.7392 12.8408 12.8408C12.7392 12.9424 12.6016 13 12.458 13C12.3145 12.9999 12.1767 12.9423 12.0752 12.8408L6.5 7.26562L0.924805 12.8408C0.823331 12.9423 0.685464 12.9999 0.541992 13C0.398362 13 0.259781 12.9424 0.158203 12.8408C0.0568889 12.7393 0 12.6015 0 12.458C5.52422e-05 12.3145 0.0568075 12.1767 0.158203 12.0752L5.73438 6.5L0.158203 0.924805C0.0567897 0.823336 0.000116689 0.685441 0 0.541992C0 0.398362 0.0566563 0.259781 0.158203 0.158203C0.259781 0.0566563 0.398362 0 0.541992 0C0.685441 0.000116689 0.823336 0.0567897 0.924805 0.158203L6.5 5.73438L12.0752 0.158203C12.1767 0.0568075 12.3145 5.52422e-05 12.458 0Z" stroke="white"/>
</svg>
