<svg width="46" height="46" viewBox="0 0 46 46" fill="none" xmlns="http://www.w3.org/2000/svg">
<path d="M22.9997 42.1667C33.5851 42.1667 42.1663 33.5855 42.1663 23C42.1663 12.4145 33.5851 3.83334 22.9997 3.83334C12.4142 3.83334 3.83301 12.4145 3.83301 23C3.83301 33.5855 12.4142 42.1667 22.9997 42.1667Z" stroke="black" stroke-width="2" stroke-linecap="round" stroke-linejoin="round"/>
<path d="M23 24.9167C26.1756 24.9167 28.75 22.3423 28.75 19.1667C28.75 15.991 26.1756 13.4167 23 13.4167C19.8244 13.4167 17.25 15.991 17.25 19.1667C17.25 22.3423 19.8244 24.9167 23 24.9167Z" stroke="black" stroke-width="2" stroke-linecap="round" stroke-linejoin="round"/>
<path d="M13 39V33.5538C13 31.8156 13.4214 30.1486 14.1716 28.9196C14.9217 27.6905 15.9391 27 17 27H29C30.0609 27 31.0783 27.6905 31.8284 28.9196C32.5786 30.1486 33 31.8156 33 33.5538V39" stroke="black" stroke-width="2" stroke-linecap="round" stroke-linejoin="round"/>
</svg>
